<svg width="960" height="640" viewBox="0 0 960 640" fill="none" xmlns="http://www.w3.org/2000/svg">
  <rect width="960" height="640" rx="28" fill="#EAF4FF"/>
  <rect x="92" y="86" width="776" height="468" rx="24" fill="white" stroke="#171717" stroke-width="6"/>
  <rect x="142" y="138" width="230" height="364" rx="20" fill="#171717"/>
  <rect x="172" y="178" width="170" height="26" rx="13" fill="white"/>
  <rect x="172" y="232" width="170" height="118" rx="16" fill="#F6C400"/>
  <rect x="172" y="378" width="76" height="76" rx="12" fill="#0A6FBD"/>
  <rect x="266" y="378" width="76" height="76" rx="12" fill="#FDECEC"/>
  <rect x="430" y="154" width="328" height="42" rx="21" fill="#171717"/>
  <rect x="430" y="232" width="260" height="24" rx="12" fill="#0A6FBD"/>
  <rect x="430" y="292" width="328" height="24" rx="12" fill="#F6C400"/>
  <rect x="430" y="352" width="220" height="24" rx="12" fill="#171717"/>
  <path d="M433 454H760" stroke="#D9D9D9" stroke-width="6" stroke-linecap="round"/>
  <path d="M433 454H632" stroke="#0A6FBD" stroke-width="10" stroke-linecap="round"/>
</svg>
