<svg width="960" height="640" viewBox="0 0 960 640" fill="none" xmlns="http://www.w3.org/2000/svg">
  <rect width="960" height="640" rx="28" fill="#FFF8D8"/>
  <rect x="86" y="88" width="788" height="464" rx="24" fill="white" stroke="#171717" stroke-width="6"/>
  <rect x="140" y="148" width="266" height="342" rx="18" fill="#E7F1FB" stroke="#171717" stroke-width="5"/>
  <rect x="178" y="196" width="190" height="28" rx="14" fill="#171717"/>
  <rect x="178" y="270" width="80" height="80" rx="12" fill="#F6C400" stroke="#171717" stroke-width="5"/>
  <rect x="288" y="270" width="80" height="80" rx="12" fill="#0A6FBD"/>
  <rect x="178" y="384" width="190" height="22" rx="11" fill="#171717"/>
  <rect x="472" y="150" width="260" height="46" rx="23" fill="#171717"/>
  <rect x="472" y="238" width="326" height="26" rx="13" fill="#F6C400"/>
  <rect x="472" y="306" width="276" height="26" rx="13" fill="#0A6FBD"/>
  <rect x="472" y="374" width="326" height="26" rx="13" fill="#171717"/>
  <rect x="472" y="442" width="224" height="26" rx="13" fill="#F6C400"/>
</svg>
